# xmcd
#
# Track frame offsets:
#	150
#	15862
#	32207
#	46872
#	62362
#	78240
#	93310
#	112337
#	129952
#	144687
#	163137
#	180270
#	197710
#	216217
#
# Disc length: 3053 seconds
#
# Revision: 0
# Processed by: cddbd v1.4PL0 Copyright (c) Steve Scherf et al.
# Submitted via: dBpowerAMP V4.0
#
DISCID=b40beb0e
DTITLE=Reginaldo Rossi - Rossi The King
DYEAR=2000
DGENRE=Other
TTITLE0=Rossi The King
TTITLE1=Foi Duro Meu Amigo
TTITLE2=Prova de Fogo
TTITLE3=Um Pedaço do Céu
TTITLE4=Coração Safado
TTITLE5=Tiazinha Story
TTITLE6=Fumacê
TTITLE7=Morrendo de Amor
TTITLE8=Dono do Teu Coração
TTITLE9=Vá com Deus
TTITLE10=Me Mata Querida
TTITLE11=Meu Disfarce
TTITLE12=Whisky a Go Go 
TTITLE13=Negro Gato(part. Planet Hemp)
EXTD=
EXTT0=
EXTT1=
EXTT2=
EXTT3=
EXTT4=
EXTT5=
EXTT6=
EXTT7=
EXTT8=
EXTT9=
EXTT10=
EXTT11=
EXTT12=
EXTT13=
PLAYORDER=
